{
    "asset" : {
        "generator" : "Khronos glTF Blender I/O v1.8.19",
        "version" : "2.0"
    },
    "scene" : 0,
    "scenes" : [
        {
            "name" : "Scene",
            "nodes" : [
                0
            ]
        }
    ],
    "nodes" : [
        {
            "mesh" : 0,
            "name" : "Cube",
            "translation" : [
                -3.467859983444214,
                0.421142041683197,
                3.130680561065674
            ]
        }
    ],
    "materials" : [
        {
            "doubleSided" : true,
            "name" : "Material.001",
            "pbrMetallicRoughness" : {
                "metallicFactor" : 0
            }
        }
    ],
    "meshes" : [
        {
            "name" : "Cube.001",
            "primitives" : [
                {
                    "attributes" : {
                        "POSITION" : 0,
                        "NORMAL" : 1,
                        "TEXCOORD_0" : 2
                    },
                    "indices" : 3,
                    "material" : 0
                }
            ]
        }
    ],
    "accessors" : [
        {
            "bufferView" : 0,
            "componentType" : 5126,
            "count" : 2771,
            "max" : [
                6.987961769104004,
                6.999300479888916,
                1
            ],
            "min" : [
                -1,
                -1,
                -7
            ],
            "type" : "VEC3"
        },
        {
            "bufferView" : 1,
            "componentType" : 5126,
            "count" : 2771,
            "type" : "VEC3"
        },
        {
            "bufferView" : 2,
            "componentType" : 5126,
            "count" : 2771,
            "type" : "VEC2"
        },
        {
            "bufferView" : 3,
            "componentType" : 5123,
            "count" : 13230,
            "type" : "SCALAR"
        }
    ],
    "bufferViews" : [
        {
            "buffer" : 0,
            "byteLength" : 33252,
            "byteOffset" : 0
        },
        {
            "buffer" : 0,
            "byteLength" : 33252,
            "byteOffset" : 33252
        },
        {
            "buffer" : 0,
            "byteLength" : 22168,
            "byteOffset" : 66504
        },
        {
            "buffer" : 0,
            "byteLength" : 26460,
            "byteOffset" : 88672
        }
    ],
    "buffers" : [
        {
            "byteLength" : 115132,
            "uri" : "geologo.bin"
        }
    ]
}
