{
    "asset" : {
        "generator" : "Khronos glTF Blender I/O v1.8.19",
        "version" : "2.0"
    },
    "scene" : 0,
    "scenes" : [
        {
            "name" : "Scene",
            "nodes" : [
                0
            ]
        }
    ],
    "nodes" : [
        {
            "mesh" : 0,
            "name" : "Cube",
            "translation" : [
                -0.6651668548583984,
                0.421142041683197,
                -1.4446628093719482
            ]
        }
    ],
    "materials" : [
        {
            "doubleSided" : true,
            "name" : "Material.001",
            "pbrMetallicRoughness" : {
                "metallicFactor" : 0
            }
        },
        {
            "doubleSided" : true,
            "name" : "Material.003",
            "pbrMetallicRoughness" : {
                "baseColorFactor" : [
                    0.02955668419599533,
                    0.0886554941534996,
                    0.16202937066555023,
                    1
                ],
                "metallicFactor" : 0,
                "roughnessFactor" : 0.5
            }
        }
    ],
    "meshes" : [
        {
            "name" : "Cube.001",
            "primitives" : [
                {
                    "attributes" : {
                        "POSITION" : 0,
                        "NORMAL" : 1,
                        "TEXCOORD_0" : 2
                    },
                    "indices" : 3,
                    "material" : 0
                },
                {
                    "attributes" : {
                        "POSITION" : 4,
                        "NORMAL" : 5,
                        "TEXCOORD_0" : 6
                    },
                    "indices" : 7,
                    "material" : 1
                }
            ]
        }
    ],
    "accessors" : [
        {
            "bufferView" : 0,
            "componentType" : 5126,
            "count" : 2284,
            "max" : [
                6.987961769104004,
                6.999300479888916,
                1
            ],
            "min" : [
                -1,
                -1,
                -7
            ],
            "type" : "VEC3"
        },
        {
            "bufferView" : 1,
            "componentType" : 5126,
            "count" : 2284,
            "type" : "VEC3"
        },
        {
            "bufferView" : 2,
            "componentType" : 5126,
            "count" : 2284,
            "type" : "VEC2"
        },
        {
            "bufferView" : 3,
            "componentType" : 5123,
            "count" : 13230,
            "type" : "SCALAR"
        },
        {
            "bufferView" : 4,
            "componentType" : 5126,
            "count" : 4,
            "max" : [
                15.090043067932129,
                -1.0285625457763672,
                9.717652320861816
            ],
            "min" : [
                -9.244563102722168,
                -1.0285625457763672,
                -14.61695384979248
            ],
            "type" : "VEC3"
        },
        {
            "bufferView" : 5,
            "componentType" : 5126,
            "count" : 4,
            "type" : "VEC3"
        },
        {
            "bufferView" : 6,
            "componentType" : 5126,
            "count" : 4,
            "type" : "VEC2"
        },
        {
            "bufferView" : 7,
            "componentType" : 5123,
            "count" : 6,
            "type" : "SCALAR"
        }
    ],
    "bufferViews" : [
        {
            "buffer" : 0,
            "byteLength" : 27408,
            "byteOffset" : 0
        },
        {
            "buffer" : 0,
            "byteLength" : 27408,
            "byteOffset" : 27408
        },
        {
            "buffer" : 0,
            "byteLength" : 18272,
            "byteOffset" : 54816
        },
        {
            "buffer" : 0,
            "byteLength" : 26460,
            "byteOffset" : 73088
        },
        {
            "buffer" : 0,
            "byteLength" : 48,
            "byteOffset" : 99548
        },
        {
            "buffer" : 0,
            "byteLength" : 48,
            "byteOffset" : 99596
        },
        {
            "buffer" : 0,
            "byteLength" : 32,
            "byteOffset" : 99644
        },
        {
            "buffer" : 0,
            "byteLength" : 12,
            "byteOffset" : 99676
        }
    ],
    "buffers" : [
        {
            "byteLength" : 99688,
            "uri" : "scena.bin"
        }
    ]
}
